<?xml version="1.0" encoding="iso-8859-1"?>
<!-- Generator: Adobe Illustrator 19.0.0, SVG Export Plug-In . SVG Version: 6.00 Build 0)  -->
<svg version="1.1" id="Layer_1" xmlns="http://www.w3.org/2000/svg" xmlns:xlink="http://www.w3.org/1999/xlink" x="0px" y="0px"
	 viewBox="0 0 512 512" style="enable-background:new 0 0 512 512;" xml:space="preserve">
<rect x="403.076" y="85.773" style="fill:#2F5E88;" width="54.473" height="340.433"/>
<rect x="54.451" y="85.773" style="fill:#367596;" width="370.415" height="340.433"/>
<g>
	<path style="fill:#88ACB5;" d="M457.549,8.171h-32.684v99.391h32.684c8.988,0,16.342-7.354,16.342-16.342V24.513
		C473.891,15.525,466.537,8.171,457.549,8.171z"/>
	<path style="fill:#88ACB5;" d="M457.549,140.245h-32.684v99.391h32.684c8.988,0,16.342-7.354,16.342-16.342v-66.707
		C473.891,147.599,466.537,140.245,457.549,140.245z"/>
</g>
<path style="fill:#A7CBCF;" d="M441.207,156.587v66.707c0,8.988-7.354,16.342-16.342,16.342H54.451
	c-8.988,0-16.342-7.354-16.342-16.342v-66.707c0-8.988,7.354-16.342,16.342-16.342h370.414
	C433.853,140.245,441.207,147.599,441.207,156.587z"/>
<g>
	<path style="fill:#88ACB5;" d="M457.549,272.342h-32.684v99.391h32.684c8.988,0,16.342-7.354,16.342-16.342v-66.707
		C473.891,279.696,466.537,272.342,457.549,272.342z"/>
	<path style="fill:#88ACB5;" d="M457.549,404.438h-32.684v99.391h32.684c8.988,0,16.342-7.354,16.342-16.342V420.78
		C473.891,411.792,466.537,404.438,457.549,404.438z"/>
</g>
<g>
	<path style="fill:#A7CBCF;" d="M441.207,288.684v66.707c0,8.988-7.354,16.342-16.342,16.342H54.451
		c-8.988,0-16.342-7.354-16.342-16.342v-66.707c0-8.988,7.354-16.342,16.342-16.342h370.414
		C433.853,272.342,441.207,279.696,441.207,288.684z"/>
	<path style="fill:#A7CBCF;" d="M441.207,420.78v66.707c0,8.988-7.354,16.342-16.342,16.342H54.451
		c-8.988,0-16.342-7.354-16.342-16.342V420.78c0-8.988,7.354-16.342,16.342-16.342h370.414
		C433.853,404.438,441.207,411.792,441.207,420.78z"/>
	<path style="fill:#A7CBCF;" d="M441.207,24.513V91.22c0,8.988-7.354,16.342-16.342,16.342H54.451
		c-8.988,0-16.342-7.354-16.342-16.342V24.513c0-8.988,7.354-16.342,16.342-16.342h370.414
		C433.853,8.171,441.207,15.525,441.207,24.513z"/>
</g>
<g>
	<path style="fill:#E5FAFC;" d="M256,49.025H119.818c-4.513,0-8.171-3.658-8.171-8.171s3.658-8.171,8.171-8.171H256
		c4.513,0,8.171,3.658,8.171,8.171S260.512,49.025,256,49.025z"/>
	<path style="fill:#E5FAFC;" d="M87.135,49.025H70.793c-4.513,0-8.171-3.658-8.171-8.171s3.658-8.171,8.171-8.171h16.342
		c4.513,0,8.171,3.658,8.171,8.171S91.647,49.025,87.135,49.025z"/>
	<path style="fill:#E5FAFC;" d="M256,181.1H119.818c-4.513,0-8.171-3.658-8.171-8.171c0-4.513,3.658-8.171,8.171-8.171H256
		c4.513,0,8.171,3.658,8.171,8.171C264.171,177.442,260.512,181.1,256,181.1z"/>
	<path style="fill:#E5FAFC;" d="M87.135,181.1H70.793c-4.513,0-8.171-3.658-8.171-8.171c0-4.513,3.658-8.171,8.171-8.171h16.342
		c4.513,0,8.171,3.658,8.171,8.171C95.305,177.442,91.647,181.1,87.135,181.1z"/>
	<path style="fill:#E5FAFC;" d="M256,313.196H119.818c-4.513,0-8.171-3.658-8.171-8.171s3.658-8.171,8.171-8.171H256
		c4.513,0,8.171,3.658,8.171,8.171S260.512,313.196,256,313.196z"/>
	<path style="fill:#E5FAFC;" d="M87.135,313.196H70.793c-4.513,0-8.171-3.658-8.171-8.171s3.658-8.171,8.171-8.171h16.342
		c4.513,0,8.171,3.658,8.171,8.171S91.647,313.196,87.135,313.196z"/>
	<path style="fill:#E5FAFC;" d="M256,445.293H119.818c-4.513,0-8.171-3.658-8.171-8.171c0-4.513,3.658-8.171,8.171-8.171H256
		c4.513,0,8.171,3.658,8.171,8.171C264.171,441.634,260.512,445.293,256,445.293z"/>
	<path style="fill:#E5FAFC;" d="M87.135,445.293H70.793c-4.513,0-8.171-3.658-8.171-8.171c0-4.513,3.658-8.171,8.171-8.171h16.342
		c4.513,0,8.171,3.658,8.171,8.171C95.305,441.634,91.647,445.293,87.135,445.293z"/>
</g>
<path d="M482.062,91.22V24.513C482.062,10.996,471.066,0,457.549,0H54.451C40.934,0,29.938,10.996,29.938,24.513V91.22
	c0,10.653,6.832,19.734,16.342,23.107v19.153c-9.51,3.373-16.342,12.455-16.342,23.107v66.707c0,10.653,6.832,19.734,16.342,23.107
	v19.174c-9.51,3.373-16.342,12.455-16.342,23.107v66.707c0,10.653,6.832,19.734,16.342,23.107v19.174
	c-9.51,3.373-16.342,12.455-16.342,23.107v66.707c0,13.517,10.996,24.513,24.513,24.513h403.098
	c13.517,0,24.513-10.996,24.513-24.513V420.78c0-10.653-6.832-19.734-16.342-23.107v-19.174c9.51-3.373,16.342-12.455,16.342-23.107
	v-66.707c0-10.653-6.832-19.734-16.342-23.107v-19.174c9.51-3.373,16.342-12.455,16.342-23.107v-66.707
	c0-10.653-6.832-19.734-16.342-23.107v-19.153C475.23,110.954,482.062,101.873,482.062,91.22z M46.28,24.513
	c0-4.506,3.665-8.171,8.171-8.171h403.098c4.506,0,8.171,3.665,8.171,8.171V91.22c0,4.506-3.665,8.171-8.171,8.171H54.451
	c-4.506,0-8.171-3.665-8.171-8.171L46.28,24.513L46.28,24.513z M62.622,132.075v-16.342h386.756v16.342H62.622z M62.622,396.267
	v-16.364h386.756v16.364H62.622z M465.72,487.487c0,4.506-3.665,8.171-8.171,8.171H54.451c-4.506,0-8.171-3.665-8.171-8.171V420.78
	c0-4.506,3.665-8.171,8.171-8.171h403.098c4.506,0,8.171,3.665,8.171,8.171V487.487z M465.72,355.391
	c0,4.506-3.665,8.171-8.171,8.171H54.451c-4.506,0-8.171-3.665-8.171-8.171v-66.707c0-4.506,3.665-8.171,8.171-8.171h403.098
	c4.506,0,8.171,3.665,8.171,8.171V355.391z M465.72,223.295c0,4.506-3.665,8.171-8.171,8.171h-32.684
	c-4.513,0-8.171,3.658-8.171,8.171c0,4.513,3.658,8.171,8.171,8.171h24.513v16.364H62.622v-16.364h329.56
	c4.513,0,8.171-3.658,8.171-8.171c0-4.513-3.658-8.171-8.171-8.171H54.451c-4.506,0-8.171-3.665-8.171-8.171v-66.707
	c0-4.506,3.665-8.171,8.171-8.171h403.098c4.506,0,8.171,3.665,8.171,8.171V223.295z"/>
<g>
</g>
<g>
</g>
<g>
</g>
<g>
</g>
<g>
</g>
<g>
</g>
<g>
</g>
<g>
</g>
<g>
</g>
<g>
</g>
<g>
</g>
<g>
</g>
<g>
</g>
<g>
</g>
<g>
</g>
</svg>
