<?xml version="1.0" encoding="utf-8"?><svg version="1.1" id="Layer_1" xmlns="http://www.w3.org/2000/svg" xmlns:xlink="http://www.w3.org/1999/xlink" x="0px" y="0px" viewBox="0 0 115.28 122.88" style="enable-background:new 0 0 115.28 122.88" xml:space="preserve"><style type="text/css">.st0{fill-rule:evenodd;clip-rule:evenodd;}</style><g><path class="st0" d="M25.38,57h64.88V37.34H69.59c-2.17,0-5.19-1.17-6.62-2.6c-1.43-1.43-2.3-4.01-2.3-6.17V7.64l0,0H8.15 c-0.18,0-0.32,0.09-0.41,0.18C7.59,7.92,7.55,8.05,7.55,8.24v106.45c0,0.14,0.09,0.32,0.18,0.41c0.09,0.14,0.28,0.18,0.41,0.18 c22.78,0,58.09,0,81.51,0c0.18,0,0.17-0.09,0.27-0.18c0.14-0.09,0.33-0.28,0.33-0.41v-11.16H25.38c-4.14,0-7.56-3.4-7.56-7.56 V64.55C17.82,60.4,21.22,57,25.38,57L25.38,57z M97.79,57h9.93c4.16,0,7.56,3.41,7.56,7.56v31.42c0,4.15-3.41,7.56-7.56,7.56h-9.93 v13.55c0,1.61-0.65,3.04-1.7,4.1c-1.06,1.06-2.49,1.7-4.1,1.7c-29.44,0-56.59,0-86.18,0c-1.61,0-3.04-0.64-4.1-1.7 c-1.06-1.06-1.7-2.49-1.7-4.1V5.85c0-1.61,0.65-3.04,1.7-4.1c1.06-1.06,2.53-1.7,4.1-1.7h58.72C64.66,0,64.8,0,64.94,0 c0.64,0,1.29,0.28,1.75,0.69h0.09c0.09,0.05,0.14,0.09,0.23,0.18l29.99,30.36c0.51,0.51,0.88,1.2,0.88,1.98 c0,0.23-0.05,0.41-0.09,0.65V57L97.79,57z M67.52,27.97V8.94l21.43,21.7H70.19c-0.74,0-1.38-0.32-1.89-0.78 C67.84,29.4,67.52,28.71,67.52,27.97L67.52,27.97z M41.78,67.82h7.71v13.51c0,2.84-0.25,5-0.75,6.48c-0.5,1.48-1.52,2.73-3.04,3.76 c-1.52,1.03-3.47,1.54-5.85,1.54c-2.51,0-4.46-0.34-5.84-1.02c-1.38-0.68-2.45-1.67-3.2-2.98c-0.75-1.3-1.2-2.92-1.33-4.84l7.33-1 c0.01,1.09,0.11,1.9,0.29,2.43c0.18,0.53,0.49,0.96,0.92,1.29c0.3,0.21,0.71,0.32,1.26,0.32c0.86,0,1.49-0.32,1.9-0.96 c0.4-0.64,0.6-1.71,0.6-3.23V67.82L41.78,67.82z M53.47,67.82h12.79c2.79,0,4.87,0.66,6.26,1.99c1.38,1.33,2.08,3.21,2.08,5.66 c0,2.51-0.76,4.48-2.27,5.9c-1.51,1.42-3.82,2.13-6.93,2.13h-4.22v9.21h-7.71V67.82L53.47,67.82z M61.19,78.45h1.89 c1.49,0,2.54-0.26,3.15-0.78c0.6-0.52,0.9-1.18,0.9-1.98c0-0.78-0.26-1.44-0.79-1.99c-0.52-0.54-1.51-0.82-2.95-0.82h-2.2V78.45 L61.19,78.45z M90.02,83.7v-5.18h11.88v10.58c-2.28,1.55-4.29,2.61-6.03,3.17c-1.75,0.56-3.82,0.84-6.22,0.84 c-2.95,0-5.36-0.5-7.22-1.51c-1.86-1-3.3-2.5-4.33-4.49c-1.03-1.99-1.53-4.27-1.53-6.85c0-2.72,0.56-5.07,1.68-7.08 c1.12-2,2.76-3.53,4.92-4.57c1.69-0.81,3.96-1.2,6.81-1.2c2.75,0,4.8,0.25,6.16,0.75c1.37,0.5,2.5,1.27,3.39,2.32 c0.9,1.05,1.58,2.37,2.03,3.98l-7.4,1.33c-0.31-0.94-0.82-1.67-1.55-2.17c-0.73-0.5-1.66-0.75-2.79-0.75 c-1.68,0-3.02,0.59-4.03,1.75c-1,1.17-1.5,3.02-1.5,5.55c0,2.69,0.5,4.61,1.52,5.76c1.01,1.15,2.42,1.73,4.23,1.73 c0.86,0,1.67-0.12,2.46-0.37c0.78-0.25,1.67-0.67,2.68-1.26V83.7H90.02L90.02,83.7z"/></g></svg>