<?xml version="1.0" encoding="UTF-8" standalone="no"?>
<!-- Created with Inkscape (http://www.inkscape.org/) -->
<svg xmlns:dc="http://purl.org/dc/elements/1.1/" xmlns:cc="http://creativecommons.org/ns#" xmlns:rdf="http://www.w3.org/1999/02/22-rdf-syntax-ns#" xmlns:svg="http://www.w3.org/2000/svg" xmlns="http://www.w3.org/2000/svg" xmlns:sodipodi="http://sodipodi.sourceforge.net/DTD/sodipodi-0.dtd" xmlns:inkscape="http://www.inkscape.org/namespaces/inkscape" version="1.1" id="svg869" width="300" height="46" viewBox="0 0 300 46" sodipodi:docname="Lucene_logo_green_300.svg" inkscape:version="0.92.2 2405546, 2018-03-11">
  <metadata id="metadata875">
    <rdf:RDF>
      <cc:Work rdf:about="">
        <dc:format>image/svg+xml</dc:format>
        <dc:type rdf:resource="http://purl.org/dc/dcmitype/StillImage"/>
        <dc:title/>
      </cc:Work>
    </rdf:RDF>
  </metadata>
  <defs id="defs873"/>
  <sodipodi:namedview pagecolor="#ffffff" bordercolor="#666666" borderopacity="1" objecttolerance="10" gridtolerance="10" guidetolerance="10" inkscape:pageopacity="0" inkscape:pageshadow="2" inkscape:window-width="1920" inkscape:window-height="1020" id="namedview871" showgrid="false" inkscape:zoom="3.64" inkscape:cx="150" inkscape:cy="23" inkscape:window-x="0" inkscape:window-y="0" inkscape:window-maximized="1" inkscape:current-layer="svg869"/>
  <g id="g901" transform="translate(1.6483516,59.065934)">
    <path inkscape:connector-curvature="0" id="path895" d="m 37.209396,-14.07553 c -1.205436,-0.485554 -2.894476,-1.955393 -3.753422,-3.266311 -1.3696,-2.090273 -1.391559,-2.927264 -0.1785,-6.803789 0.76077,-2.431167 1.710456,-5.207804 2.110411,-6.170304 0.674498,-1.623191 -0.409303,-1.75 -14.95672,-1.75 H 4.7472527 l -2.9230769,-2.923077 c -2.9041973,-2.904197 -3.8822973,-6.076923 -1.873417,-6.076923 0.577313,0 2.264813,0.625345 3.75,1.389656 2.24622,1.155955 5.0547404,1.197998 16.7003402,0.25 l 14,-1.139656 -12.847011,-0.516768 -12.8470114,-0.516768 -2.9899197,-3.346301 c -3.5938314,-4.022196 -2.5424952,-6.297474 1.6427474,-3.555198 2.4979156,1.636697 3.7304897,1.659124 18.8569017,0.343098 l 16.184293,-1.408063 -15,-0.5 c -8.25,-0.275 -15.5657,-0.866036 -16.257112,-1.313412 -1.5542121,-1.005651 -4.341722,-6.254421 -3.6754384,-6.920704 0.2682266,-0.268227 2.1627793,0.306027 4.2101174,1.276119 3.464857,1.641758 4.69117,1.666292 17.722433,0.354567 7.7,-0.775081 16.925,-1.518887 20.5,-1.652904 l 6.5,-0.243666 -0.09367,4 c -0.05547,2.368573 -1.78765,7.776432 -4.247032,13.259212 -2.284347,5.092567 -4.58437,11.167567 -5.111162,13.5 -1.511449,6.692109 -0.528623,7.146025 15.583764,7.197331 l 13.64738,0.04346 3.652035,-9 3.652035,-9 4.847838,-0.310489 c 2.666312,-0.170769 5.187992,0.05423 5.603734,0.5 0.415742,0.445769 -0.58435,4.132105 -2.222427,8.191858 -2.621677,6.497473 -2.802125,7.557567 -1.506913,8.852779 2.786613,2.786613 5.173169,0.573718 9.428378,-8.742316 3.876391,-8.48667 4.280141,-8.991835 7.186591,-8.991835 3.86885,0 3.87705,0.964303 0.0794,9.339727 -4.46573,9.848961 -4.59181,9.660273 6.45469,9.660273 h 9.45468 l 0.67897,-3.75 c 1.95137,-10.777729 8.3876,-15.251055 21.91166,-15.22911 7.30904,0.01186 9.14301,0.909126 7.63137,3.73365 -0.8696,1.624864 -2.3486,2.089976 -7.73687,2.433075 -7.11496,0.453047 -9.70036,2.198531 -11.01503,7.436598 -1.27415,5.076628 -0.49464,5.375787 14.00761,5.375787 h 13.44986 l 2.18424,-6.563643 c 3.05415,-9.17774 5.36143,-11.574532 11.73148,-12.186612 2.82424,-0.271374 6.73526,-0.193192 8.69116,0.173737 3.31585,0.622059 3.55593,0.917507 3.55244,4.371831 -0.002,2.037578 -0.89544,5.167187 -1.9853,6.954687 -1.61916,2.655619 -2.61245,3.25 -5.43116,3.25 -1.89728,0 -4.7164,0.481643 -6.2647,1.070318 -5.23093,1.988833 -0.0918,3.003231 13.72399,2.708961 l 13.11203,-0.279279 2.88875,-7.428601 c 1.58882,-4.08573 3.53131,-8.071155 4.31666,-8.8565 1.67131,-1.671309 12.81448,-2.780602 18.0554,-1.797399 2.16073,0.405355 4.21904,1.615842 5.14151,3.02371 1.40431,2.14325 1.3601,2.854759 -0.50757,8.168609 -1.12523,3.201475 -2.04587,6.17396 -2.04587,6.605522 0,0.431563 4.43972,0.784659 9.86605,0.784659 h 9.86605 l 2.70101,-7.405703 c 1.48556,-4.073137 3.5877,-8.208142 4.67143,-9.188901 2.15462,-1.949903 11.91846,-3.118408 16.4834,-1.97268 2.48596,0.623936 2.62798,0.959314 2.16091,5.103127 -0.70509,6.255531 -2.94991,9.244628 -7.49128,9.975039 -7.07617,1.138094 -8.33865,1.548909 -7.73945,2.518435 0.35458,0.573719 8.55037,0.970683 20.0409,0.970683 20.8858,0 21.94543,0.298568 17.12653,4.825686 -2.28405,2.145756 -2.76799,2.174314 -36.84501,2.174314 -32.18266,0 -34.6431,-0.124345 -36.18555,-1.828741 -2.05547,-2.271269 -2.1081,-5.84256 -0.15499,-10.517016 2.38426,-5.706326 2.03982,-6.654243 -2.41788,-6.654243 h -3.91788 l -2.62579,7.884531 c -1.44418,4.336492 -3.42907,8.611492 -4.41086,9.5 -1.61495,1.461513 -9.8305,1.609428 -86.20633,1.552083 -46.431694,-0.03486 -85.407527,-0.460657 -86.612964,-0.94621 z M 210.3008,-19.315934 c 0.86082,-2.3375 2.36931,-6.485672 3.3522,-9.218161 1.46764,-4.080142 2.35245,-5.130309 4.95017,-5.875327 3.80106,-1.090128 7.86211,-0.234636 8.65151,1.822507 0.31579,0.822955 -0.40674,4.222503 -1.60562,7.55455 -3.59528,9.992294 -5.58162,9.423508 33.97745,9.729402 29.35758,0.22701 34.17988,0.05607 35.26382,-1.25 1.11304,-1.341119 -0.7935,-1.512971 -16.785,-1.512971 -9.92236,0 -18.75246,-0.273145 -19.62244,-0.606989 -2.11799,-0.812748 -2.01311,-4.091829 0.16821,-5.259131 0.9625,-0.515068 3.90362,-1.259413 6.53581,-1.654098 3.93584,-0.59016 5.05664,-1.241322 6.31068,-3.666381 0.83868,-1.621824 1.38507,-3.930812 1.21419,-5.131086 -0.28945,-2.033175 -0.81471,-2.172487 -7.68604,-2.038502 -8.08482,0.157647 -8.10932,0.174369 -10.77714,7.356187 -0.91938,2.475 -2.25072,5.9625 -2.95853,7.75 l -1.28692,3.25 h -11.08241 c -12.863,0 -13.3581,-0.376571 -10.59558,-8.058887 2.4311,-6.760656 1.87373,-9.114511 -2.42406,-10.237127 -3.95995,-1.03437 -14.76174,-0.34225 -16.13802,1.034036 -0.49869,0.498687 -2.37829,4.47414 -4.17688,8.83434 l -3.27018,7.927638 h -15.34847 c -13.46704,0 -15.48234,-0.212218 -16.44051,-1.731236 -1.68587,-2.672657 1.35084,-4.96403 7.3416,-5.539667 4.41829,-0.424542 5.32419,-0.892563 6.63535,-3.428067 0.83516,-1.61502 1.37867,-3.918441 1.20779,-5.118715 -0.28911,-2.030769 -0.81806,-2.172606 -7.61716,-2.042502 -4.01856,0.0769 -7.5551,0.388432 -7.85897,0.692299 -0.30386,0.303867 -2.03759,4.290951 -3.85272,8.860187 l -3.30024,8.307701 h -14.73181 c -12.36574,0 -14.89256,-0.254848 -15.73271,-1.586759 -1.43652,-2.277358 -0.0155,-8.454722 2.66048,-11.565778 1.91953,-2.231588 3.40337,-2.767072 9.20543,-3.322034 4.81732,-0.460773 6.36187,-0.910266 5.08818,-1.480761 -2.95752,-1.324699 -14.8549,0.205215 -17.66246,2.271261 -3.0485,2.243343 -5.74304,7.380767 -6.52158,12.434071 l -0.57775,3.75 H 113.3244 c -9.00681,0 -11.60384,-0.306908 -12.03169,-1.421862 -0.30009,-0.782024 1.04217,-5.085809 2.9828,-9.563968 2.65915,-6.136192 3.15278,-8.064756 2.00368,-7.828138 -0.83862,0.172682 -3.13996,4.069472 -5.11411,8.659532 -3.820428,8.882829 -6.053735,10.925989 -10.67501,9.766122 -3.799146,-0.953525 -4.1337,-4.310839 -1.159069,-11.631453 1.413554,-3.478777 2.570098,-6.472466 2.570098,-6.652641 0,-0.180176 -1.522736,-0.327592 -3.383857,-0.327592 -3.176669,0 -3.524751,0.347141 -5.68499,5.669629 -1.265624,3.118296 -2.562203,7.280796 -2.881286,9.25 l -0.580151,3.580371 -10.984858,0.309995 c -26.92663,0.759874 -28.33132,-1.231171 -17.836238,-25.281555 5.643939,-12.933572 5.65168,-13.938275 0.10138,-13.158222 -2.3375,0.328518 -11.45,1.323022 -20.25,2.210008 -8.8,0.886987 -16.1875,1.794294 -16.416667,2.016239 -0.229166,0.221944 6.858334,0.403535 15.75,0.403535 13.804951,0 16.166667,0.22226 16.166667,1.521439 0,0.836791 -1.0125,1.935526 -2.25,2.441633 -2.475047,1.012233 -21.070232,2.980658 -29.75,3.149238 l -5.5000001,0.106821 4.5000001,0.954823 c 2.475,0.525152 10.2375,0.684309 17.25,0.353683 10.606679,-0.500085 12.75,-0.363388 12.75,0.813168 0,2.989511 -3.338838,3.902003 -19.616198,5.361033 -12.493903,1.119898 -17.3131838,1.214808 -19.2719195,0.37954 l -2.6118826,-1.113792 2.360784,2.016207 c 2.1599898,1.844721 3.7638524,2.016207 18.8569891,2.016207 15.315533,0 16.44519,0.125252 15.783441,1.75 -4.212297,10.342162 -4.328142,14.031011 -0.501214,15.960226 1.951092,0.983577 20.980027,1.263527 86.667291,1.275032 l 84.16729,0.01474 z m -36.3997,-10.061439 c 0,-1.7909 3.75472,-5.688561 5.47994,-5.688561 2.22896,0 2.86447,1.987956 1.46903,4.595353 -1.4129,2.640017 -6.94897,3.51095 -6.94897,1.093208 z m 5,-1.688561 c 0,-0.55 -0.45,-1 -1,-1 -0.55,0 -1,0.45 -1,1 0,0.55 0.45,1 1,1 0.55,0 1,-0.45 1,-1 z m 82,1.5 c 0,-1.952728 3.56751,-5.5 5.53138,-5.5 2.37442,0 2.90525,2.86005 0.93491,5.037245 -2.11467,2.336688 -6.46629,2.648108 -6.46629,0.462755 z m 4.5,-1.5 c 0.33992,-0.55 0.14148,-1 -0.44098,-1 -0.58246,0 -1.05902,0.45 -1.05902,1 0,0.55 0.19844,1 0.44098,1 0.24254,0 0.7191,-0.45 1.05902,-1 z" style="fill:#000000"/>
    <path inkscape:connector-curvature="0" id="path897" d="m 84.450549,-15.372742 c -36.437326,-0.187434 -44.65973,-0.393827 -46.474464,-1.166555 -1.745382,-0.7432 -2.702937,-2.301651 -2.699434,-4.393423 0.0027,-1.640915 0.890811,-5.12636 2.182022,-8.563937 1.243841,-3.311455 1.324264,-3.837514 0.631986,-4.133924 -0.690082,-0.29547 -10.975114,-0.631463 -20.260989,-0.66189 C 7.4076239,-34.32662 5.1738578,-34.67483 3.543956,-36.519391 l -0.5494505,-0.621813 0.6868132,0.191446 c 2.3813055,0.663779 4.4347299,0.765185 9.4601253,0.467178 9.007505,-0.534146 21.24427,-1.785787 24.591671,-2.515367 3.602775,-0.785238 5.233918,-1.895329 5.233918,-3.561993 0,-1.37624 -1.014602,-1.476835 -11.675824,-1.157623 -9.752502,0.292003 -16.944364,0.09058 -19.642857,-0.550134 -1.462847,-0.34733 -1.305289,-0.369611 4.945055,-0.699291 9.00758,-0.475113 19.647173,-1.552521 25.210013,-2.552867 3.656434,-0.657525 5.554803,-3.366166 2.928308,-4.178187 -0.441736,-0.136569 -7.198533,-0.336388 -15.015107,-0.444043 -7.816572,-0.107653 -14.274587,-0.258372 -14.351145,-0.33493 -0.20328,-0.20328 3.248695,-0.6272 16.475183,-2.023236 6.497253,-0.685776 13.893739,-1.491569 16.436635,-1.790652 2.542896,-0.299083 4.93172,-0.466416 5.308497,-0.371851 0.376775,0.09457 0.794399,0.459553 0.928052,0.811086 0.44941,1.18204 -0.234483,3.125906 -5.488571,15.600445 -4.516058,10.722267 -5.492767,15.215987 -3.954371,18.193577 0.764508,1.47972 2.307555,2.475748 4.901626,3.163962 2.719242,0.721426 11.081539,0.970275 22.214091,0.66106 l 7.279555,-0.202195 0.310011,-1.961162 c 0.762258,-4.822088 4.128311,-14.275559 5.625146,-15.798076 0.559214,-0.568808 2.5462,-0.865729 4.579134,-0.684274 l 1.821127,0.162549 -1.102146,2.783715 c -3.403547,8.59643 -3.99281,11.209493 -3.022492,13.403064 0.403792,0.912835 0.822992,1.366561 1.612893,1.745717 1.335289,0.640945 3.858868,0.848371 5.147473,0.423094 1.614475,-0.532824 3.579936,-2.969962 5.303772,-6.57658 4.486409,-9.386494 5.885349,-11.843448 6.743429,-11.843448 0.54677,0 -0.007,1.882638 -2.07852,7.071336 -3.44214,8.620129 -3.78519,10.298244 -2.25455,11.028681 1.05566,0.503772 6.95747,0.818827 15.72839,0.839623 6.36091,0.01508 6.92951,-0.02234 7.05745,-0.464365 0.0765,-0.264423 0.28304,-1.467093 0.45891,-2.672599 0.66817,-4.580118 2.57937,-8.943099 5.11925,-11.686466 1.71707,-1.854642 3.01026,-2.477394 6.82961,-3.288872 3.3876,-0.719746 10.55524,-1.055645 11.80329,-0.553141 l 0.82418,0.331838 -0.64376,0.247059 c -0.35406,0.135883 -2.64287,0.491589 -5.08623,0.790458 -2.44337,0.298869 -5.05455,0.75195 -5.80263,1.006846 -3.38065,1.151906 -6.44896,6.4553 -6.45863,11.163371 -0.004,2.161193 0.52348,3.335289 1.68422,3.745761 1.57721,0.557748 7.64276,0.827391 18.77955,0.834844 l 10.71429,0.0072 1.76051,-4.461761 c 0.96829,-2.45397 2.55464,-6.34336 3.52523,-8.643089 1.74893,-4.143928 1.77372,-4.183245 2.77245,-4.395605 0.55426,-0.117851 3.82995,-0.214276 7.2793,-0.214276 5.89088,0 6.29526,0.03237 6.66209,0.533278 0.94245,1.286936 -0.007,5.554086 -1.6677,7.49408 -1.14448,1.337071 -1.79281,1.580766 -5.63408,2.117774 -3.57065,0.499179 -5.44636,1.093022 -6.6898,2.117976 -1.67745,1.382689 -1.55122,3.358516 0.28278,4.426401 1.31404,0.765126 7.45967,1.061478 20.12847,0.970623 l 10.83684,-0.07771 2.64759,-6.318681 c 2.83868,-6.774732 4.37368,-9.995423 5.01922,-10.531179 0.64977,-0.539253 4.2742,-1.115487 8.21156,-1.305519 5.86315,-0.282979 9.19918,0.430928 10.66513,2.28233 0.91244,1.152342 0.65608,3.936394 -0.76596,8.318104 -0.61296,1.888736 -1.19815,3.844016 -1.30042,4.345069 -0.26329,1.29003 0.28083,2.396722 1.45154,2.952258 1.25295,0.594566 6.40421,0.909134 15.22024,0.929448 l 6.5039,0.01497 1.09881,-2.815934 c 0.60435,-1.548764 1.80009,-4.67033 2.6572,-6.936813 2.66326,-7.042564 3.16774,-7.788677 5.65377,-8.361759 0.66484,-0.15326 3.59423,-0.281678 6.50975,-0.285371 5.26598,-0.0067 5.3054,-0.0023 5.97528,0.667609 0.83781,0.837816 0.87005,1.93081 0.12782,4.333861 -0.64496,2.08816 -1.85224,3.863415 -3.04777,4.481649 -0.47182,0.243986 -2.42137,0.743607 -4.33234,1.110266 -4.04319,0.775772 -5.78243,1.308583 -6.74618,2.066674 -1.48238,1.166041 -1.42446,3.983563 0.0981,4.770901 0.98273,0.508186 5.30507,0.682631 23.01208,0.92875 13.64354,0.189637 14.38598,0.257859 13.56552,1.246472 -0.7655,0.922366 -2.73415,1.048404 -18.43146,1.180019 -16.53926,0.138679 -44.28828,-0.296178 -47.25275,-0.740497 -3.44059,-0.515687 -4.94505,-1.434923 -4.94505,-3.021478 0,-0.38717 0.66908,-2.677657 1.48686,-5.08997 1.70925,-5.042068 2.16145,-7.388538 1.65569,-8.591387 -0.98951,-2.353351 -7.40102,-2.813574 -10.56389,-0.758283 -1.36425,0.886514 -2.07538,2.364524 -5.0318,10.458148 -1.43503,3.928572 -2.69489,7.359204 -2.7997,7.623627 -0.1805,0.455379 -2.49963,0.477939 -43.91117,0.427192 -24.04633,-0.02946 -60.22473,-0.138464 -80.396431,-0.242231 z m 94.454941,-13.226626 c 3.26468,-1.528414 3.76357,-6.546688 0.64875,-6.525689 -1.81859,0.01226 -5.21698,3.174734 -5.69549,5.300102 -0.44268,1.966232 2.13015,2.591037 5.04674,1.225587 z m 86.82825,-0.110223 c 2.30174,-1.147006 3.54128,-3.590893 2.67297,-5.270033 -0.89721,-1.735005 -3.02169,-1.499482 -5.35476,0.593634 -1.03243,0.92625 -2.22777,2.958124 -2.22777,3.786836 0,1.681302 2.43528,2.12255 4.90956,0.889563 z" style="fill:#ccffaa;stroke:none;stroke-width:0.27472529;stroke-opacity:1"/>
  </g>
</svg>