<?xml version="1.0" encoding="utf-8"?>
<!-- Generator: Adobe Illustrator 15.0.2, SVG Export Plug-In . SVG Version: 6.00 Build 0)  -->
<!DOCTYPE svg PUBLIC "-//W3C//DTD SVG 1.1//EN" "http://www.w3.org/Graphics/SVG/1.1/DTD/svg11.dtd">
<svg version="1.1" id="Ebene_1" xmlns="http://www.w3.org/2000/svg" xmlns:xlink="http://www.w3.org/1999/xlink" x="0px" y="0px"
	 width="115.199px" height="28.35px" viewBox="0 0 115.199 28.35" enable-background="new 0 0 115.199 28.35" xml:space="preserve">
<line fill="none" x1="137.094" y1="54.328" x2="137.094" y2="-22.712"/>
<polygon fill="#818084" points="25.566,27.771 13.139,15.343 25.566,2.915 0.969,2.915 0.969,27.771 "/>
<polygon fill="#818084" points="52.269,27.771 52.269,2.915 27.412,2.915 "/>
<polygon fill="#E84E0E" points="56.491,2.927 57.454,2.927 57.454,8.366 63.334,2.927 64.637,2.927 60.117,7.105 64.849,13.041 
	63.602,13.041 59.396,7.771 57.454,9.571 57.454,13.041 56.491,13.041 "/>
<polygon fill="none" stroke="#E84E0E" stroke-width="0.155" points="56.491,2.927 57.454,2.927 57.454,8.366 63.334,2.927 
	64.637,2.927 60.117,7.105 64.849,13.041 63.602,13.041 59.396,7.771 57.454,9.571 57.454,13.041 56.491,13.041 "/>
<g>
	<path fill="#E84E0E" d="M67.648,0.689h0.963v1.012h-0.963V0.689z M71.187,0.689h0.963v1.012h-0.963V0.689z M69.906,12.432
		c2.662,0,3.796-2.238,3.796-4.448c0-2.209-1.134-4.447-3.796-4.447c-2.677,0-3.81,2.238-3.81,4.447
		C66.097,10.193,67.229,12.432,69.906,12.432 M69.906,2.715c3.172,0,4.76,2.507,4.76,5.269c0,2.763-1.588,5.271-4.76,5.271
		c-3.188,0-4.773-2.508-4.773-5.271C65.133,5.222,66.719,2.715,69.906,2.715"/>
	<path fill="none" stroke="#E84E0E" stroke-width="0.155" d="M67.648,0.689h0.963v1.012h-0.963V0.689z M71.187,0.689h0.963v1.012
		h-0.963V0.689z M69.906,12.432c2.662,0,3.796-2.238,3.796-4.448c0-2.209-1.134-4.447-3.796-4.447c-2.677,0-3.81,2.238-3.81,4.447
		C66.097,10.193,67.229,12.432,69.906,12.432z M69.906,2.715c3.172,0,4.76,2.507,4.76,5.269c0,2.763-1.588,5.271-4.76,5.271
		c-3.188,0-4.773-2.508-4.773-5.271C65.133,5.222,66.719,2.715,69.906,2.715z"/>
</g>
<polygon fill="#E84E0E" points="76.927,2.927 78.004,2.927 83.896,11.481 83.924,11.481 83.924,2.927 84.888,2.927 84.888,13.041 
	83.811,13.041 77.918,4.486 77.89,4.486 77.89,13.041 76.927,13.041 "/>
<polygon fill="none" stroke="#E84E0E" stroke-width="0.155" points="76.927,2.927 78.004,2.927 83.896,11.481 83.924,11.481 
	83.924,2.927 84.888,2.927 84.888,13.041 83.811,13.041 77.918,4.486 77.89,4.486 77.89,13.041 76.927,13.041 "/>
<rect x="87.755" y="2.927" fill="#E84E0E" width="0.963" height="10.114"/>
<rect x="87.756" y="2.927" fill="none" stroke="#E84E0E" stroke-width="0.155" width="0.963" height="10.114"/>
<g>
	<path fill="#E84E0E" d="M100.242,13.041h-0.694L99.42,11.2h-0.028c-0.68,1.444-2.04,2.053-3.499,2.053
		c-3.187,0-4.773-2.507-4.773-5.27c0-2.762,1.587-5.269,4.773-5.269c2.124,0,3.854,1.146,4.222,3.356h-0.963
		c-0.127-1.161-1.331-2.535-3.259-2.535c-2.677,0-3.81,2.238-3.81,4.447c0,2.21,1.133,4.448,3.81,4.448
		c2.238,0,3.541-1.572,3.499-3.711H95.95V7.899h4.292V13.041z"/>
	<path fill="none" stroke="#E84E0E" stroke-width="0.155" d="M100.242,13.041h-0.694L99.42,11.2h-0.028
		c-0.68,1.444-2.04,2.053-3.499,2.053c-3.187,0-4.773-2.507-4.773-5.27c0-2.762,1.587-5.269,4.773-5.269
		c2.124,0,3.854,1.146,4.222,3.356h-0.963c-0.127-1.161-1.331-2.535-3.259-2.535c-2.677,0-3.81,2.238-3.81,4.447
		c0,2.21,1.133,4.448,3.81,4.448c2.238,0,3.541-1.572,3.499-3.711H95.95V7.899h4.292V13.041z"/>
</g>
<polygon fill="#E84E0E" points="56.478,17.673 57.555,17.673 63.446,26.229 63.475,26.229 63.475,17.673 64.438,17.673 
	64.438,27.787 63.361,27.787 57.47,19.232 57.44,19.232 57.44,27.787 56.478,27.787 "/>
<polygon fill="none" stroke="#E84E0E" stroke-width="0.155" points="56.478,17.673 57.555,17.673 63.446,26.229 63.475,26.229 
	63.475,17.673 64.438,17.673 64.438,27.787 63.361,27.787 57.47,19.232 57.44,19.232 57.44,27.787 56.478,27.787 "/>
<polygon fill="#E84E0E" points="65.69,17.673 72.674,17.673 72.674,18.495 66.653,18.495 66.653,22.149 72.291,22.149 72.291,22.97 
	66.653,22.97 66.653,26.965 72.745,26.965 72.745,27.787 65.69,27.787 "/>
<polygon fill="none" stroke="#E84E0E" stroke-width="0.155" points="65.69,17.673 72.674,17.673 72.674,18.495 66.653,18.495 
	66.653,22.149 72.291,22.149 72.291,22.97 66.653,22.97 66.653,26.965 72.745,26.965 72.745,27.787 65.69,27.787 "/>
<g>
	<path fill="#E84E0E" d="M73.474,17.673h0.964v6.261c-0.016,2.353,1.104,3.244,2.96,3.244c1.869,0,2.988-0.892,2.974-3.244v-6.261
		h0.964v6.475c0,2.081-1.12,3.852-3.938,3.852c-2.806,0-3.924-1.771-3.924-3.852V17.673z"/>
	<path fill="none" stroke="#E84E0E" stroke-width="0.155" d="M73.474,17.673h0.964v6.261c-0.016,2.353,1.104,3.244,2.96,3.244
		c1.869,0,2.988-0.892,2.974-3.244v-6.261h0.964v6.475c0,2.081-1.12,3.852-3.938,3.852c-2.806,0-3.924-1.771-3.924-3.852V17.673z"/>
	<path fill="#E84E0E" d="M83.465,22.475h3.598c1.175,0,2.181-0.735,2.181-1.969c0-1.231-0.735-2.011-2.181-2.011h-3.598V22.475z
		 M82.502,17.673h4.631c1.672,0,3.075,0.809,3.075,2.635c0,1.275-0.666,2.322-1.971,2.578v0.028c1.318,0.17,1.7,1.077,1.771,2.281
		c0.042,0.692,0.042,2.082,0.468,2.592h-1.063c-0.24-0.397-0.24-1.148-0.269-1.573c-0.086-1.416-0.2-2.988-2.027-2.918h-3.653v4.491
		h-0.963V17.673z"/>
	<path fill="none" stroke="#E84E0E" stroke-width="0.155" d="M83.465,22.475h3.598c1.175,0,2.181-0.735,2.181-1.969
		c0-1.231-0.735-2.011-2.181-2.011h-3.598V22.475z M82.502,17.673h4.631c1.672,0,3.075,0.809,3.075,2.635
		c0,1.275-0.666,2.322-1.971,2.578v0.028c1.318,0.17,1.7,1.077,1.771,2.281c0.042,0.692,0.042,2.082,0.468,2.592h-1.063
		c-0.24-0.397-0.24-1.148-0.269-1.573c-0.086-1.416-0.2-2.988-2.027-2.918h-3.653v4.491h-0.963V17.673z"/>
</g>
<path fill="#E84E0E" d="M93.382,23.821h3.979l-1.955-5.186L93.382,23.821z M94.91,17.673h1.077l3.966,10.114h-1.035l-1.23-3.146
	h-4.604l-1.218,3.146h-1.034L94.91,17.673z"/>
<path fill="none" stroke="#E84E0E" stroke-width="0.155" d="M93.382,23.821h3.979l-1.955-5.186L93.382,23.821z M94.91,17.673h1.077
	l3.966,10.114h-1.035l-1.23-3.146h-4.604l-1.218,3.146h-1.034L94.91,17.673z"/>
<polygon fill="#E84E0E" points="97.723,17.673 105.739,17.673 105.739,18.495 102.213,18.495 102.213,27.787 101.25,27.787 
	101.25,18.495 97.723,18.495 "/>
<polygon fill="none" stroke="#E84E0E" stroke-width="0.155" points="97.723,17.673 105.739,17.673 105.739,18.495 102.213,18.495 
	102.213,27.787 101.25,27.787 101.25,18.495 97.723,18.495 "/>
<polygon fill="#E84E0E" points="106.431,17.673 107.394,17.673 107.394,22.065 113.4,22.065 113.4,17.673 114.364,17.673 
	114.364,27.787 113.4,27.787 113.4,22.886 107.394,22.886 107.394,27.787 106.431,27.787 "/>
<polygon fill="none" stroke="#E84E0E" stroke-width="0.155" points="106.431,17.673 107.394,17.673 107.394,22.065 113.4,22.065 
	113.4,17.673 114.364,17.673 114.364,27.787 113.4,27.787 113.4,22.886 107.394,22.886 107.394,27.787 106.431,27.787 "/>
<rect x="108.825" y="2.902" fill="#E84E0E" width="0.878" height="10.113"/>
<rect x="108.825" y="2.901" fill="none" stroke="#E84E0E" stroke-width="0.155" width="0.877" height="10.113"/>
<rect x="104.256" y="7.531" fill="#E84E0E" width="10.113" height="0.883"/>
<rect x="104.255" y="7.531" fill="none" stroke="#E84E0E" stroke-width="0.155" width="10.114" height="0.883"/>
<rect x="56.452" y="14.958" fill="#E84E0E" width="57.925" height="0.706"/>
<rect x="56.452" y="14.958" fill="none" stroke="#E84E0E" stroke-width="0.155" width="57.925" height="0.706"/>
<rect x="26.002" y="2.929" fill="#E84E0E" width="0.963" height="24.844"/>
<rect x="26.002" y="2.929" fill="none" stroke="#E84E0E" stroke-width="0.155" width="0.963" height="24.844"/>
</svg>

